<svg id="Слой_1" data-name="Слой 1" xmlns="http://www.w3.org/2000/svg" viewBox="0 0 2160 2160"><defs><style>.cls-1{fill:#fff;}.cls-2{fill:#f44336;}</style></defs><rect width="2160" height="2160"/><path class="cls-1" d="M1508.29,1046.77c-4.5,114.43-17.13,227.48-59,335.46-34.21,88.24-90.12,162.09-153,231.06a1242.23,1242.23,0,0,1-206.15,181.36c-9.48,6.64-16.52,7.36-25.77.68-128.6-92.83-241.67-200.65-323.78-337.85C695.46,1382,673.54,1298.29,660,1212.4a1288.58,1288.58,0,0,1-14.13-268.52c.77-14.56,5.83-23.79,18.28-30.74C820.61,825.81,987,782,1166.56,804.23c113,14,219.86,49.29,319,106.41,15.35,8.84,23.76,19.2,23,38C1507.4,981.33,1508.29,1014.07,1508.29,1046.77Zm-788.56,20.06c.44,99,16.14,192.63,41.62,258.64,60.49,156.66,165.86,276.84,303,370.73,5.71,3.91,18.35,4.63,23.81,1,119.91-80.62,215.26-183.78,279.45-313.75,54-109.39,71-227.13,68.59-347.69-1.49-75.5,6.51-60.79-59.13-92.79-4-2-7.94-4.22-12.08-5.88-118-47.39-239.82-69.66-367-54.28-91.09,11-178.39,35.07-259.76,78.76-12.91,6.93-19,15.71-18.69,30.32C720.12,1016.84,719.73,1041.84,719.73,1066.83Z"/><path class="cls-2" d="M1028.51,1190.29c1.84-1.39,7.7-5.81,11.57-3.86,6.64,3.34-.8,21.2,3.86,38.58,4.85,18,20.71,27.92,30.86,34.72,36.59,24.5,83.84,66,104.16,92.58,40.13,52.44,31.81,120.36,30.86,127.31-11.8,86.33-93,138.26-88.72,142.73,3.27,3.41,49.24-27.77,96.44-81,47.35-53.41,77.81-87.66,88.73-142.74,20.24-102.13-44.69-184.7-57.87-200.6-29.45-35.52-69-61.92-73.3-57.86-2.07,1.94,5.08,9.84,7.72,27,1.28,8.34,3.75,24.19-3.86,34.72-10.11,14-37.32,17.79-54,7.72-29.32-17.7-21.93-75.65-19.28-96.45,5-39.11,16.07-41.19,19.28-69.44,8-70.48-51.7-139.34-61.72-135-4.84,2.09,3.8,20.43,3.86,46.3.13,57.28-46.93,103.39-81,138.87-37.31,38.84-67.58,57.79-61.73,77.16,2.95,9.76,11.67,8.38,23.15,23.15,14.78,19,22.14,48.59,11.57,73.29-2.42,5.66-12.51,32.36-34.72,34.72-17,1.81-31.69-12-38.57-23.15-14.11-22.82-4.29-49.27-7.72-50.15-4.47-1.14-30.28,41.56-34.72,96.45-7.75,95.76,54,173.39,84.87,212.17,42.47,53.38,89.12,88.11,92.59,84.87,2.75-2.57-22.22-28.63-50.15-81-14.92-28-22.66-42.79-27-65.58-2.48-13-9.64-53.51,11.58-88.73,8.45-14,20-24.92,23.14-23.15,3.56,2-7.7,18.24-3.86,38.58,2.41,12.75,11.32,30.11,27,34.72,19.12,5.63,41.57-9.66,50.15-27,11.33-22.93-1.22-50.18-15.43-81-12.63-27.39-16.81-23.56-23.15-42.43C1000.57,1249.48,1007.35,1206.26,1028.51,1190.29Z"/><path class="cls-1" d="M1022.6,1581.84c0-5.52-.17-10.62.14-15.69.06-1,1.79-2.21,3-2.74,10.58-4.67,20.14-10.66,26.56-20.63,3.71-5.77,5.69-12,3.78-19-1.68-6.11-6-9-12.26-9.4-8.5-.47-17-1.45-25.47-2.2-17.38-1.53-33.2-7.18-46.54-18.6-5.6-4.8-10.44-10.52-15.45-16-.74-.81-1.12-3-.58-3.68a5.47,5.47,0,0,1,3.88-1.66c12.66-.11,25.32-.06,38,0,9.46,0,18.92.07,28.38-.08,1.36,0,2.67-1.13,4-1.64a8.62,8.62,0,0,1,2.73-.68c4.84-.06,9.69,0,14.81,0,.19-1.94.36-3.65.55-5.6h149c0,2.86.45,5.74-.19,8.34-.33,1.33-2.49,2.55-4.08,3.15-11.78,4.51-23.87,8.27-35.36,13.4a74.14,74.14,0,0,0-29.1,22.64c-9.65,12.61-10.56,27.49-2.2,38.81a37.57,37.57,0,0,0,17.27,12.92c2.19.84,2.85,2,2.78,4.19-.16,4.6,0,9.2,0,14.2-9.68,0-19.1,0-28.52,0a3.27,3.27,0,0,1-1.73-.64c-11.51-8.54-24.83-8.61-38.17-7.9-9,.48-17.8,2-25.1,8.09a2.42,2.42,0,0,1-1.41.46C1041.84,1581.84,1032.42,1581.84,1022.6,1581.84Z"/><path class="cls-1" d="M1346.56,617.17c0-1.56,0-3.12,0-4.68.4-7.09,2.78-9.56,9.78-9.39,6.23.15,12.44.84,18.67,1.21,28.22,1.66,56.43,3.41,84.66,4.88,13,.68,26.12.74,39.18,1.19,9.52.33,11.53,2.49,11.55,12.11,0,13.46,0,26.92-.06,40.38-.05,8.32-2.48,10.59-10.75,9.32s-16.42-3.44-24.7-4.65c-15-2.18-30.16-3.81-45.21-5.92-8.68-1.22-17.26-3.09-25.93-4.36s-12.06,1.63-12.42,10.27c-.25,6-.13,12.05.12,18.07.22,5.06,3,8.5,8,9.51,14.5,2.94,29.07,5.52,43.55,8.55,10.48,2.19,20.87,4.78,31.25,7.38,4.62,1.16,6.68,4.84,6.76,9.22.28,13.65.54,27.31.21,41-.18,7.65-3.46,9.22-11,6.93-16.56-5-33.18-9.9-49.76-14.89-5.77-1.74-11.42-3.92-17.25-5.39-7.25-1.83-10.77,1.12-10.86,8.62-.07,6,0,12.09,0,18.14,0,5.36,2.58,8.41,7.74,10.26,20.88,7.48,41.65,15.26,62.44,23,11.09,4.13,22.07,8.52,33.2,12.54,11.72,4.24,14.83,9,14.5,21.31-.28,10.32.1,20.66.17,31a46.66,46.66,0,0,1-.12,7c-.9,6-4.12,7.74-9.51,5-9.35-4.75-18.51-9.9-27.89-14.6-10.23-5.14-20.46-10.33-31-14.85-20.88-9-41.94-17.57-63-26.23-7-2.89-14.16-5.4-21.19-8.23-9.4-3.79-10.06-5-10-15.27Z"/><path class="cls-1" d="M978.77,684.45c0,15.81-.34,31.62.08,47.41.63,23.92-20.24,50-44.39,53.22-21.14,2.84-41.8,9.22-62.74,13.71a253.49,253.49,0,0,1-27.66,4.55c-19.27,2-31-15.5-31.41-30-.71-25.52-.34-51.08-.11-76.62.14-16.37,0-32.82,1.6-49.08,1-10.27,3-21.3,7.94-30.1,6.36-11.37,18.93-15.17,31.73-15.61,26.32-.92,52.64-1.7,79-2,7.93-.1,16.2.37,23.75,2.54A31.29,31.29,0,0,1,978.7,631.2c.74,17.72.17,35.5.17,53.25Zm-45.69-14.06c.07-4.09.55-8.2.34-12.27-.48-9.12-6.1-14.58-15.14-14.23-15.19.6-30.36,1.65-45.55,2.5-6.44.36-10.59,4-12.51,9.77A37.4,37.4,0,0,0,858.53,667c-.45,23.59-.62,47.19-1.07,70.78-.23,12,7.11,18.53,18.95,16.32,12.42-2.33,24.82-4.82,37.22-7.24,12.22-2.38,18-8.52,18.31-20.95Z"/><path class="cls-1" d="M1173.6,630.57c.16-14.88,11.21-28,26-29,17.26-1.15,34.63-.81,52-.68,24.19.17,48.38.75,72.56,1.15,10.84.18,13,2.3,13.31,13,.21,8.18.44,16.36.55,24.54.09,6.9-3.74,10.67-9.76,10.16-18.45-1.56-36.9-3.17-55.38-4.41-12.44-.84-24.93-1.33-37.4-1.5-14.12-.2-17.44,3.2-17.3,17.12q.35,33.06,1,66.11c.24,11.65,7.78,18.52,19.17,20.18,14.24,2.07,28.39,5,42.41,8.33,8.65,2,13.43-.82,13.39-9.56,0-5.66,0-11.32-.23-17-.28-6.15-3.27-9.33-9.17-10.26-18.57-3-18.56-3-18.78-21.49,0-2.93-.28-5.85-.25-8.78.1-9.95,3-12.62,12.93-11.37,7.92,1,15.75,2.76,23.66,3.84q12.75,1.74,25.57,2.8c6.54.54,9.29,2.72,9.58,9.28.31,7.21.13,14.43.2,21.65.28,26.32.53,52.63.89,78.94,0,3.3.89,6.57,1,9.87.28,7.43-4.34,10.71-11.35,8.54-27.33-8.45-54.76-16.46-83.1-21.05a291.41,291.41,0,0,1-36.53-8.1c-11.72-3.51-20.27-11.76-27.32-21.83-6.66-9.49-8.18-20-8.14-31.06Z"/><path class="cls-1" d="M642.79,621.8c0-9.52,2.2-11.37,11.66-11.74,30-1.21,60-2.71,90-4.15,17.14-.82,34.28-1.86,51.43-2.54,8.19-.33,9.78,1.66,9.94,10,.17,8.75.52,17.49.89,26.23.24,5.87-7.49,13-15.16,13.75-16.11,1.57-32.25,2.86-48.34,4.69-9.68,1.1-19.25,3.1-28.9,4.49-5.58.81-11.22,1.35-16.84,1.8-7.87.65-11.25,4.12-11.23,11.88,0,7.41-.16,14.84.12,22.24.26,6.79,4.58,9.73,11.06,8.36,18.67-3.93,37.36-7.7,56-11.59,3.43-.72,6.77-2,10.22-2.48,7.48-1.12,11.32,2.78,11.09,10.25-.28,8.75-.3,17.53,0,26.29.22,7.78-5,13.94-12.53,16-23.11,6.22-46.11,12.88-69.11,19.49-4.88,1.4-7.08,4.81-7.06,10.1.1,25.37-.81,50.78.31,76.1.54,12-5.46,17.35-14.26,22.17-6,3.27-11.63,7.05-17.71,10-2.56,1.26-6.5,2.32-8.6,1.19s-3.5-5.09-3.52-7.82Z"/><path class="cls-1" d="M995.13,617.21a48.52,48.52,0,0,0-.33-5.25c-.94-8.72,3.1-13.27,11.83-13.28,18.92,0,37.83-.14,56.74,0,20.47.12,41,0,61.39,1a46.08,46.08,0,0,1,19.38,5.53c12.31,6.74,16.32,18.94,17.1,32.08.64,10.89,1.17,21.93.11,32.75-1.84,18.73-8.51,28.89-26.71,32.91-5,1.1-10,1.83-14.92,3-6.84,1.57-8.69,5.62-4.88,11.59,5.33,8.37,11.06,16.48,16.7,24.65,5.75,8.33,11.7,16.53,17.34,24.92,3.13,4.66.71,9.11-5.18,9-7-.1-14-1.25-20.94-1.6a134,134,0,0,0-13.44.29c-8.5.42-12.36-5.89-16.3-11.58-11.08-16-21.84-32.2-32.77-48.29a43.14,43.14,0,0,0-3.41-4c-3-3.41-6.35-6.19-11.16-4.22s-7.1,6-7.06,11.13c.07,9.14.3,18.29.48,27.43.13,7,.38,14,.41,21a9.1,9.1,0,0,1-8.91,9.12c-9.52.52-19.06.84-28.59.77-6.48,0-9.38-3.55-9.21-10.22Zm104.4,53.38c8.67-.24,17.12-7.93,17.29-15.37.18-8.17-8.61-17-17.5-17.19q-22.8-.53-45.63-.63c-2.87,0-6,.24-8.53,1.48-2.15,1.08-4.47,3.49-5,5.72A50.15,50.15,0,0,0,1039,658c.31,9.14,4.5,12.94,13.7,13Z"/><path class="cls-2" d="M650,367.83a7.82,7.82,0,0,1,7.83-7.83h74.79a107.41,107.41,0,0,1,17.22,1.74,142.59,142.59,0,0,1,17.55,4.15,118.83,118.83,0,0,1,20.27,7.95q55,27.46,55,96.35t-55,96.36q-27.57,13.73-55,13.73H657.86a7.82,7.82,0,0,1-7.83-7.83Zm82.62,157.41a60.89,60.89,0,0,0,27.46-6.87,48.64,48.64,0,0,0,19-16.35q8.61-13,8.61-31.83,0-34.44-27.58-48.17a60.89,60.89,0,0,0-27.46-6.87H712.9a7.84,7.84,0,0,0-7.83,7.83v94.43a7.84,7.84,0,0,0,7.83,7.83Z"/><path class="cls-2" d="M908.35,550.81v21.64a7.83,7.83,0,0,1-7.83,7.83H861.13a7.82,7.82,0,0,1-7.82-7.83V367.83a7.82,7.82,0,0,1,7.82-7.83h74.69q20.7,0,41.31,10.35,41.29,20.61,41.31,72.27,0,47.61-43.69,74.4a7.84,7.84,0,0,0-2.22,11.39l29.53,39.35a7.82,7.82,0,0,1-6.26,12.52H949.58a7.84,7.84,0,0,1-6.5-3.46l-20.41-30.37A7.82,7.82,0,0,0,908.35,550.81Zm27.47-80.72a31.6,31.6,0,0,0,13.84-3.38,24,24,0,0,0,9.37-8.18q4.37-6.54,4.36-15.91,0-17.22-13.73-24.09A30.84,30.84,0,0,0,935.82,415H916.18a7.83,7.83,0,0,0-7.83,7.83v39.39a7.83,7.83,0,0,0,7.83,7.83Z"/><path class="cls-2" d="M1239.37,513a108.4,108.4,0,0,1-23.54,35,110.14,110.14,0,1,1-155.76-155.76A110.12,110.12,0,0,1,1239.37,513ZM1099,431.17a55.41,55.41,0,1,0,38.91-16A53.19,53.19,0,0,0,1099,431.17Z"/><path class="cls-2" d="M1267.47,360h39.39a7.83,7.83,0,0,1,7.83,7.83V572.45a7.83,7.83,0,0,1-7.83,7.83h-39.39a7.83,7.83,0,0,1-7.83-7.83V367.83A7.83,7.83,0,0,1,1267.47,360Z"/><path class="cls-2" d="M1325,367.83a7.83,7.83,0,0,1,7.83-7.83h74.79a107.41,107.41,0,0,1,17.22,1.74,142.59,142.59,0,0,1,17.55,4.15,118.83,118.83,0,0,1,20.27,7.95q55,27.46,55,96.35t-55,96.36q-27.57,13.73-55,13.73h-74.79a7.83,7.83,0,0,1-7.83-7.83Zm82.62,157.41a60.93,60.93,0,0,0,27.47-6.87,48.68,48.68,0,0,0,19-16.35q8.61-13,8.61-31.83,0-34.44-27.57-48.17a60.93,60.93,0,0,0-27.47-6.87h-19.75a7.84,7.84,0,0,0-7.83,7.83v94.43a7.84,7.84,0,0,0,7.83,7.83Z"/></svg>